<svg width="250" height="164" viewBox="0 0 250 164" fill="none" xmlns="http://www.w3.org/2000/svg">
<path d="M36.0986 112.286C49.3836 112.286 60.1533 101.482 60.1533 88.1548C60.1533 74.8277 49.3836 64.0239 36.0986 64.0239C22.8136 64.0239 12.0439 74.8277 12.0439 88.1548C12.0439 101.482 22.8136 112.286 36.0986 112.286Z" fill="#F2F2F2"/>
<path d="M234.777 56.8154H99.9793V28.5194H234.777V56.8154ZM100.573 56.2197H234.184V29.1151H100.573V56.2197Z" fill="#3F3D56"/>
<path d="M224.979 34.1785H90.7751V61.8787H224.979V34.1785Z" fill="#2F80ED"/>
<path d="M5.93818 7.74421C7.08606 7.74421 8.01659 6.81072 8.01659 5.65921C8.01659 4.5077 7.08606 3.57422 5.93818 3.57422C4.79031 3.57422 3.85977 4.5077 3.85977 5.65921C3.85977 6.81072 4.79031 7.74421 5.93818 7.74421Z" fill="#2F80ED"/>
<path d="M13.0641 7.74421C14.2119 7.74421 15.1425 6.81072 15.1425 5.65921C15.1425 4.5077 14.2119 3.57422 13.0641 3.57422C11.9162 3.57422 10.9857 4.5077 10.9857 5.65921C10.9857 6.81072 11.9162 7.74421 13.0641 7.74421Z" fill="#2F80ED"/>
<path d="M20.19 7.74421C21.3379 7.74421 22.2684 6.81072 22.2684 5.65921C22.2684 4.5077 21.3379 3.57422 20.19 3.57422C19.0421 3.57422 18.1116 4.5077 18.1116 5.65921C18.1116 6.81072 19.0421 7.74421 20.19 7.74421Z" fill="#2F80ED"/>
<path d="M250 163.223H0L0 0L250 0V163.223ZM0.593822 162.627H249.406V0.595706H0.593822V162.627Z" fill="#3F3D56"/>
<path d="M249.705 9.0354H0.299194V9.63111H249.705V9.0354Z" fill="#3F3D56"/>
<path d="M6.53207 7.14845C6.06228 7.14845 5.60304 7.00871 5.21243 6.74688C4.82181 6.48505 4.51736 6.1129 4.33758 5.6775C4.1578 5.2421 4.11076 4.76299 4.20241 4.30077C4.29406 3.83855 4.52029 3.41397 4.85249 3.08073C5.18468 2.74748 5.60791 2.52054 6.06867 2.4286C6.52943 2.33666 7.00703 2.38385 7.44106 2.5642C7.87508 2.74455 8.24605 3.04996 8.50706 3.44181C8.76806 3.83366 8.90737 4.29436 8.90737 4.76563C8.90664 5.39737 8.65615 6.00303 8.21086 6.44973C7.76556 6.89644 7.16182 7.14772 6.53207 7.14845ZM6.53207 2.97852C6.17973 2.97852 5.8353 3.08333 5.54234 3.2797C5.24938 3.47607 5.02104 3.75518 4.88621 4.08174C4.75137 4.40829 4.71609 4.76762 4.78482 5.11428C4.85356 5.46095 5.02323 5.77938 5.27237 6.02932C5.52152 6.27925 5.83895 6.44945 6.18452 6.51841C6.53009 6.58737 6.88828 6.55197 7.2138 6.41671C7.53933 6.28145 7.81756 6.05239 8.01331 5.7585C8.20906 5.46461 8.31354 5.11909 8.31354 4.76563C8.31299 4.29183 8.12513 3.83759 7.79116 3.50256C7.45719 3.16753 7.00438 2.97907 6.53207 2.97852Z" fill="#3F3D56"/>
<path d="M13.6579 7.14845C13.1882 7.14845 12.7289 7.00871 12.3383 6.74688C11.9477 6.48505 11.6432 6.1129 11.4635 5.6775C11.2837 5.2421 11.2366 4.76299 11.3283 4.30077C11.4199 3.83855 11.6462 3.41397 11.9784 3.08073C12.3106 2.74748 12.7338 2.52054 13.1946 2.4286C13.6553 2.33666 14.1329 2.38385 14.5669 2.5642C15.001 2.74455 15.3719 3.04996 15.6329 3.44181C15.8939 3.83366 16.0332 4.29436 16.0332 4.76563C16.0325 5.39737 15.782 6.00303 15.3367 6.44973C14.8914 6.89644 14.2877 7.14772 13.6579 7.14845ZM13.6579 2.97852C13.3056 2.97852 12.9612 3.08333 12.6682 3.2797C12.3753 3.47607 12.1469 3.75518 12.0121 4.08174C11.8772 4.40829 11.842 4.76762 11.9107 5.11428C11.9794 5.46095 12.1491 5.77938 12.3983 6.02932C12.6474 6.27925 12.9648 6.44945 13.3104 6.51841C13.656 6.58737 14.0142 6.55197 14.3397 6.41671C14.6652 6.28145 14.9434 6.05239 15.1392 5.7585C15.3349 5.46461 15.4394 5.11909 15.4394 4.76563C15.4389 4.29183 15.251 3.83759 14.917 3.50256C14.5831 3.16753 14.1303 2.97907 13.6579 2.97852Z" fill="#3F3D56"/>
<path d="M20.7839 7.14845C20.3141 7.14845 19.8548 7.0087 19.4642 6.74688C19.0736 6.48505 18.7692 6.11291 18.5894 5.6775C18.4096 5.2421 18.3626 4.76299 18.4542 4.30077C18.5459 3.83855 18.7721 3.41397 19.1043 3.08073C19.4365 2.74748 19.8597 2.52054 20.3205 2.4286C20.7812 2.33666 21.2588 2.38384 21.6929 2.56419C22.1269 2.74454 22.4979 3.04995 22.7589 3.4418C23.0199 3.83366 23.1592 4.29435 23.1592 4.76563C23.1584 5.39737 22.9079 6.00302 22.4627 6.44973C22.0174 6.89644 21.4136 7.14772 20.7839 7.14845ZM20.7839 2.97852C20.4315 2.97852 20.0871 3.08333 19.7941 3.2797C19.5012 3.47607 19.2728 3.75518 19.138 4.08173C19.0032 4.40828 18.9679 4.76761 19.0366 5.11428C19.1054 5.46095 19.275 5.77938 19.5242 6.02931C19.7733 6.27925 20.0907 6.44945 20.4363 6.51841C20.7819 6.58737 21.1401 6.55198 21.4656 6.41671C21.7911 6.28145 22.0694 6.05239 22.2651 5.7585C22.4609 5.46461 22.5653 5.11909 22.5653 4.76563C22.5648 4.29183 22.3769 3.83759 22.043 3.50256C21.709 3.16753 21.2562 2.97907 20.7839 2.97852Z" fill="#3F3D56"/>
<path d="M78.8974 9.33301H78.3036V163.156H78.8974V9.33301Z" fill="#3F3D56"/>
<path d="M150.306 84.9624H106.66V90.9195H150.306V84.9624Z" fill="#F2F2F2"/>
<path d="M218.893 84.9624H175.247V90.9195H218.893V84.9624Z" fill="#F2F2F2"/>
<path d="M152.978 88.2388H108.738V81.686H152.978V88.2388ZM109.332 87.6431H152.384V82.2817H109.332V87.6431Z" fill="#3F3D56"/>
<path d="M150.306 131.13H106.66V137.087H150.306V131.13Z" fill="#F2F2F2"/>
<path d="M152.978 134.406H108.738V127.853H152.978V134.406ZM109.332 133.81H152.384V128.449H109.332V133.81Z" fill="#3F3D56"/>
<path d="M219.041 107.45H106.808V113.407H219.041V107.45Z" fill="#F2F2F2"/>
<path d="M221.713 111.322H108.887V104.77H221.713V111.322ZM109.481 110.727H221.12V105.365H109.481V110.727Z" fill="#3F3D56"/>
<path d="M221.565 88.2388H177.325V81.686H221.565V88.2388ZM177.919 87.6431H220.971V82.2817H177.919V87.6431Z" fill="#3F3D56"/>
<path d="M40.1694 105.974C35.3386 105.974 30.6164 104.537 26.5997 101.845C22.5831 99.1527 19.4525 95.326 17.6039 90.8489C15.7552 86.3717 15.2715 81.4451 16.214 76.6922C17.1564 71.9393 19.4826 67.5734 22.8985 64.1467C26.3144 60.72 30.6664 58.3864 35.4044 57.441C40.1423 56.4956 45.0533 56.9808 49.5163 58.8353C53.9794 60.6898 57.794 63.8303 60.4778 67.8597C63.1616 71.889 64.5941 76.6263 64.5941 81.4723C64.5868 87.9684 62.0112 94.1964 57.4322 98.7898C52.8533 103.383 46.645 105.967 40.1694 105.974ZM40.1694 57.7127C35.485 57.7127 30.9059 59.1062 27.0109 61.7169C23.116 64.3277 20.0803 68.0384 18.2877 72.3799C16.4951 76.7214 16.026 81.4987 16.9399 86.1076C17.8538 90.7165 20.1095 94.95 23.4219 98.2729C26.7342 101.596 30.9544 103.859 35.5488 104.775C40.1431 105.692 44.9053 105.222 49.2331 103.423C53.5609 101.625 57.2599 98.5797 59.8624 94.6724C62.4649 90.7652 63.854 86.1715 63.854 81.4723C63.8469 75.1731 61.3492 69.1339 56.9091 64.6796C52.4689 60.2254 46.4488 57.7199 40.1694 57.7127Z" fill="#3F3D56"/>
</svg>
