<svg width="246" height="206" viewBox="0 0 246 206" fill="none" xmlns="http://www.w3.org/2000/svg">
<g clip-path="url(#clip0)">
<path d="M216.772 206C231.552 206 243.534 205.092 243.534 203.972C243.534 202.852 231.552 201.944 216.772 201.944C201.992 201.944 190.01 202.852 190.01 203.972C190.01 205.092 201.992 206 216.772 206Z" fill="#E6E6E6"/>
<path d="M86.4028 206C101.183 206 113.165 205.092 113.165 203.972C113.165 202.852 101.183 201.944 86.4028 201.944C71.6226 201.944 59.6409 202.852 59.6409 203.972C59.6409 205.092 71.6226 206 86.4028 206Z" fill="#E6E6E6"/>
<path d="M205.111 179.283H23.13C22.3697 179.282 21.6409 178.981 21.1033 178.447C20.5658 177.913 20.2634 177.189 20.2626 176.434V2.84877C20.2634 2.09348 20.5658 1.36937 21.1033 0.835297C21.6409 0.301227 22.3697 0.00082443 23.13 0H205.111C205.871 0.00082443 206.6 0.301227 207.138 0.835297C207.675 1.36937 207.978 2.09348 207.979 2.84877V176.434C207.978 177.189 207.675 177.913 207.138 178.447C206.6 178.981 205.871 179.282 205.111 179.283ZM23.13 1.13951C22.6738 1.14 22.2365 1.32024 21.914 1.64069C21.5915 1.96113 21.41 2.3956 21.4095 2.84877V176.434C21.41 176.887 21.5915 177.322 21.914 177.642C22.2365 177.962 22.6738 178.143 23.13 178.143H205.111C205.567 178.143 206.005 177.962 206.327 177.642C206.65 177.322 206.831 176.887 206.832 176.434V2.84877C206.831 2.3956 206.65 1.96113 206.327 1.64069C206.005 1.32024 205.567 1.14 205.111 1.13951H23.13Z" fill="#E6E6E6"/>
<path d="M33.6436 15.1935C33.3395 15.1938 33.048 15.314 32.8329 15.5276C32.6179 15.7412 32.497 16.0309 32.4966 16.333V63.4327C32.497 63.7348 32.6179 64.0244 32.8329 64.2381C33.048 64.4517 33.3395 64.5718 33.6436 64.5722H81.0505C81.3545 64.5718 81.6461 64.4517 81.8611 64.2381C82.0761 64.0244 82.1971 63.7348 82.1974 63.4327V16.333C82.1971 16.0309 82.0761 15.7412 81.8611 15.5276C81.6461 15.314 81.3545 15.1938 81.0505 15.1935H33.6436Z" fill="#E6E6E6"/>
<path d="M108.21 49.2839C107.846 49.2899 107.5 49.4376 107.245 49.6951C106.99 49.9526 106.847 50.2994 106.847 50.6606C106.847 51.0218 106.99 51.3686 107.245 51.6261C107.5 51.8836 107.846 52.0313 108.21 52.0373H173.539C173.721 52.0407 173.902 52.0084 174.072 51.9422C174.242 51.876 174.397 51.7771 174.528 51.6513C174.659 51.5256 174.764 51.3753 174.836 51.2092C174.909 51.0431 174.948 50.8643 174.951 50.6833C174.954 50.5022 174.921 50.3223 174.854 50.1539C174.787 49.9855 174.687 49.8319 174.56 49.7019C174.433 49.5719 174.281 49.4681 174.114 49.3963C173.947 49.3246 173.767 49.2864 173.584 49.2839C173.569 49.2836 173.554 49.2836 173.539 49.2839H108.21Z" fill="#E6E6E6"/>
<path d="M108.21 36.7493C107.846 36.7553 107.5 36.903 107.245 37.1606C106.99 37.4181 106.847 37.7648 106.847 38.1261C106.847 38.4873 106.99 38.834 107.245 39.0916C107.5 39.3491 107.846 39.4968 108.21 39.5028H126.897C127.079 39.5062 127.26 39.4739 127.43 39.4076C127.599 39.3414 127.754 39.2426 127.885 39.1168C128.017 38.991 128.121 38.8408 128.194 38.6746C128.267 38.5085 128.306 38.3298 128.309 38.1487C128.312 37.9676 128.279 37.7877 128.212 37.6193C128.144 37.4509 128.045 37.2973 127.918 37.1674C127.791 37.0374 127.639 36.9335 127.472 36.8618C127.304 36.7901 127.124 36.7518 126.942 36.7493C126.927 36.7491 126.912 36.7491 126.897 36.7493H108.21Z" fill="#E6E6E6"/>
<path d="M108.21 62.1984C107.846 62.2044 107.5 62.3521 107.245 62.6096C106.99 62.8672 106.847 63.2139 106.847 63.5752C106.847 63.9364 106.99 64.2831 107.245 64.5406C107.5 64.7982 107.846 64.9459 108.21 64.9519H173.539C173.906 64.9569 174.26 64.8172 174.523 64.5633C174.787 64.3095 174.938 63.9622 174.944 63.5977C174.95 63.2332 174.81 62.8811 174.555 62.6188C174.3 62.3565 173.951 62.2053 173.584 62.1984C173.569 62.1982 173.554 62.1982 173.539 62.1984H108.21Z" fill="#E6E6E6"/>
<path d="M185.922 111.942H96.1407C94.3904 111.942 92.9721 110.939 92.9701 109.701V90.3138C92.9721 89.0767 94.3904 88.0728 96.1407 88.0728H185.922C187.673 88.0728 189.091 89.0767 189.093 90.3138V109.701C189.091 110.938 187.673 111.941 185.922 111.942Z" fill="#E6E6E6"/>
<path d="M125.135 159.042H35.3528C33.6026 159.042 32.1842 158.038 32.1823 156.801V137.414C32.1842 136.176 33.6026 135.172 35.3528 135.172H125.135C126.885 135.172 128.303 136.176 128.305 137.414V156.801C128.304 158.038 126.885 159.041 125.135 159.042Z" fill="#E6E6E6"/>
<path d="M98.0505 169.722H8.26878C6.51855 169.722 5.10016 168.718 5.09825 167.481V148.094C5.10016 146.857 6.51855 145.853 8.26878 145.853H98.0505C99.8007 145.853 101.219 146.857 101.221 148.094V167.481C101.22 168.718 99.8008 169.721 98.0505 169.722ZM8.26878 146.748C7.21856 146.748 6.36753 147.351 6.36638 148.093V167.48C6.36638 168.222 7.21856 168.824 8.26878 168.825H98.0505C99.1007 168.825 99.9518 168.222 99.9529 167.48V148.094C99.9529 147.352 99.1007 146.75 98.0505 146.749L8.26878 146.748Z" fill="#3F3D56"/>
<path d="M130.369 116.61C134.381 116.61 137.633 113.379 137.633 109.393C137.633 105.407 134.381 102.176 130.369 102.176C126.357 102.176 123.105 105.407 123.105 109.393C123.105 113.379 126.357 116.61 130.369 116.61Z" fill="#2F80ED"/>
<path d="M21.4096 164.849C25.4213 164.849 28.6735 161.618 28.6735 157.632C28.6735 153.646 25.4213 150.415 21.4096 150.415C17.3978 150.415 14.1456 153.646 14.1456 157.632C14.1456 161.618 17.3978 164.849 21.4096 164.849Z" fill="#2F80ED"/>
<path d="M146.059 104.218C145.695 104.224 145.349 104.371 145.094 104.629C144.839 104.886 144.696 105.233 144.696 105.594C144.696 105.956 144.839 106.302 145.094 106.56C145.349 106.817 145.695 106.965 146.059 106.971H198.007C198.374 106.976 198.728 106.837 198.991 106.583C199.255 106.329 199.406 105.982 199.412 105.617C199.418 105.252 199.278 104.9 199.023 104.638C198.769 104.376 198.419 104.225 198.052 104.218C198.037 104.217 198.022 104.217 198.007 104.218H146.059Z" fill="#3F3D56"/>
<path d="M146.059 111.815C145.695 111.821 145.349 111.968 145.094 112.226C144.839 112.483 144.696 112.83 144.696 113.191C144.696 113.552 144.839 113.899 145.094 114.157C145.349 114.414 145.695 114.562 146.059 114.568H198.007C198.374 114.573 198.728 114.433 198.991 114.179C199.255 113.926 199.406 113.578 199.412 113.214C199.418 112.849 199.278 112.497 199.023 112.235C198.769 111.973 198.419 111.821 198.052 111.815C198.037 111.814 198.022 111.814 198.007 111.815H146.059Z" fill="#3F3D56"/>
<path d="M37.0997 152.457C36.7362 152.463 36.3896 152.611 36.1346 152.868C35.8797 153.126 35.7368 153.472 35.7368 153.834C35.7368 154.195 35.8797 154.542 36.1346 154.799C36.3896 155.057 36.7362 155.204 37.0997 155.21H89.0477C89.4146 155.215 89.7685 155.076 90.0319 154.822C90.2953 154.568 90.4466 154.221 90.4526 153.856C90.4586 153.492 90.3189 153.14 90.064 152.877C89.8092 152.615 89.46 152.464 89.0931 152.457C89.078 152.457 89.0628 152.457 89.0477 152.457H37.0997Z" fill="#3F3D56"/>
<path d="M37.0997 160.054C36.7362 160.06 36.3896 160.207 36.1346 160.465C35.8797 160.722 35.7368 161.069 35.7368 161.43C35.7368 161.792 35.8797 162.138 36.1346 162.396C36.3896 162.653 36.7362 162.801 37.0997 162.807H89.0477C89.4146 162.812 89.7685 162.672 90.0319 162.419C90.2953 162.165 90.4466 161.817 90.4526 161.453C90.4586 161.088 90.3189 160.736 90.064 160.474C89.8092 160.212 89.46 160.061 89.0931 160.054C89.078 160.053 89.0628 160.053 89.0477 160.054H37.0997Z" fill="#3F3D56"/>
<path d="M217.526 197.134C226.62 197.134 233.991 189.81 233.991 180.776C233.991 171.741 226.62 164.417 217.526 164.417C208.433 164.417 201.061 171.741 201.061 180.776C201.061 189.81 208.433 197.134 217.526 197.134Z" fill="#2F2E41"/>
<path d="M225.029 193.614H220.027V202.518H225.029V193.614Z" fill="#2F2E41"/>
<path d="M215.025 193.614H210.023V202.518H215.025V193.614Z" fill="#2F2E41"/>
<path d="M220.861 204.175C223.163 204.175 225.029 203.479 225.029 202.622C225.029 201.764 223.163 201.068 220.861 201.068C218.559 201.068 216.692 201.764 216.692 202.622C216.692 203.479 218.559 204.175 220.861 204.175Z" fill="#2F2E41"/>
<path d="M210.857 203.968C213.159 203.968 215.025 203.272 215.025 202.414C215.025 201.557 213.159 200.861 210.857 200.861C208.554 200.861 206.688 201.557 206.688 202.414C206.688 203.272 208.554 203.968 210.857 203.968Z" fill="#2F2E41"/>
<path d="M217.109 182.225C220.217 182.225 222.737 179.722 222.737 176.634C222.737 173.547 220.217 171.043 217.109 171.043C214.001 171.043 211.482 173.547 211.482 176.634C211.482 179.722 214.001 182.225 217.109 182.225Z" fill="white"/>
<path d="M217.109 178.498C218.145 178.498 218.985 177.664 218.985 176.634C218.985 175.605 218.145 174.771 217.109 174.771C216.073 174.771 215.233 175.605 215.233 176.634C215.233 177.664 216.073 178.498 217.109 178.498Z" fill="#3F3D56"/>
<path d="M233.498 165.563C234.827 159.647 230.577 153.67 224.006 152.212C217.434 150.754 211.028 154.368 209.699 160.283C208.369 166.198 212.725 168.38 219.297 169.838C225.869 171.296 232.168 171.478 233.498 165.563Z" fill="#E6E6E6"/>
<path d="M42.173 72.1536C42.1771 74.6618 41.5975 77.137 40.4794 79.3857C40.3532 79.644 40.2194 79.8947 40.0779 80.1454H11.3394C11.198 79.8947 11.0642 79.644 10.938 79.3857C9.84081 77.1755 9.26039 74.7475 9.2401 72.2832C9.21981 69.8188 9.76016 67.3817 10.8208 65.154C11.8814 62.9262 13.435 60.9652 15.3654 59.4176C17.2957 57.87 19.5531 56.7756 21.9689 56.2163C24.3847 55.6569 26.8964 55.647 29.3166 56.1874C31.7367 56.7277 34.0028 57.8043 35.9454 59.3367C37.8881 60.8691 39.4572 62.8177 40.5355 65.0371C41.6139 67.2565 42.1737 69.6892 42.173 72.1536Z" fill="#2F2E41"/>
<path d="M26.1259 73.6015C29.2338 73.6015 31.7532 71.0983 31.7532 68.0106C31.7532 64.9228 29.2338 62.4197 26.1259 62.4197C23.018 62.4197 20.4985 64.9228 20.4985 68.0106C20.4985 71.0983 23.018 73.6015 26.1259 73.6015Z" fill="white"/>
<path d="M26.1259 69.8741C27.1618 69.8741 28.0016 69.0398 28.0016 68.0105C28.0016 66.9812 27.1618 66.1469 26.1259 66.1469C25.0899 66.1469 24.2501 66.9812 24.2501 68.0105C24.2501 69.0398 25.0899 69.8741 26.1259 69.8741Z" fill="#3F3D56"/>
<path d="M9.73719 56.939C8.40771 51.0235 12.6576 45.0462 19.2295 43.5882C25.8014 42.1303 32.2068 45.7438 33.5363 51.6593C34.8658 57.5748 30.5103 59.7566 23.9384 61.2145C17.3665 62.6724 11.0667 62.8545 9.73719 56.939Z" fill="#2F80ED"/>
<path d="M49.3184 29.2473H1.91157C1.40464 29.2475 0.918536 29.4476 0.560088 29.8038C0.201639 30.1599 0.000183407 30.6429 0 31.1465V78.2462C0.000183407 78.7498 0.201639 79.2328 0.560088 79.5889C0.918536 79.945 1.40464 80.1452 1.91157 80.1454H49.3184C49.8254 80.1452 50.3115 79.945 50.6699 79.5889C51.0284 79.2328 51.2298 78.7498 51.23 78.2462V31.1465C51.2298 30.6429 51.0284 30.1599 50.6699 29.8038C50.3115 29.4476 49.8254 29.2475 49.3184 29.2473ZM50.4654 78.2462C50.4645 78.5481 50.3434 78.8375 50.1285 79.051C49.9136 79.2645 49.6223 79.3848 49.3184 79.3857H1.91157C1.60765 79.3848 1.31644 79.2645 1.10154 79.051C0.886643 78.8375 0.765518 78.5481 0.764627 78.2462V31.1465C0.765513 30.8446 0.886642 30.5552 1.10154 30.3417C1.31644 30.1282 1.60765 30.0079 1.91157 30.007H49.3184C49.6224 30.0079 49.9136 30.1282 50.1285 30.3417C50.3434 30.5552 50.4645 30.8445 50.4654 31.1465V78.2462Z" fill="#3F3D56"/>
<path d="M101.353 169.339C102.977 165.12 103.212 161.289 101.879 160.782C100.545 160.276 98.1484 163.286 96.5251 167.506C94.9018 171.725 94.6667 175.557 96 176.063C97.3332 176.569 99.7301 173.559 101.353 169.339Z" fill="#2F2E41"/>
<path d="M99.973 183.396C101.43 174.478 95.334 166.076 86.3579 164.628C77.3818 163.181 68.9244 169.237 67.4678 178.155C66.0112 187.073 72.1069 195.476 81.083 196.923C90.0591 198.37 98.5164 192.314 99.973 183.396Z" fill="#2F2E41"/>
<path d="M81.2194 193.614H76.2173V202.518H81.2194V193.614Z" fill="#2F2E41"/>
<path d="M91.2236 193.614H86.2215V202.518H91.2236V193.614Z" fill="#2F2E41"/>
<path d="M80.3857 204.175C82.6879 204.175 84.5541 203.479 84.5541 202.622C84.5541 201.764 82.6879 201.068 80.3857 201.068C78.0836 201.068 76.2173 201.764 76.2173 202.622C76.2173 203.479 78.0836 204.175 80.3857 204.175Z" fill="#2F2E41"/>
<path d="M90.3899 203.968C92.692 203.968 94.5583 203.272 94.5583 202.414C94.5583 201.557 92.692 200.861 90.3899 200.861C88.0877 200.861 86.2215 201.557 86.2215 202.414C86.2215 203.272 88.0877 203.968 90.3899 203.968Z" fill="#2F2E41"/>
<path d="M67.7486 165.563C66.4191 159.647 70.669 153.67 77.2409 152.212C83.8129 150.754 90.2183 154.367 91.5477 160.283C92.8772 166.198 88.5218 168.38 81.9498 169.838C75.3779 171.296 69.0781 171.478 67.7486 165.563Z" fill="#2F80ED"/>
<path d="M72.6135 176.69C73.2252 175.409 70.3907 172.801 66.2826 170.865C62.1745 168.93 58.3484 168.399 57.7367 169.68C57.125 170.962 59.9595 173.57 64.0676 175.505C68.1757 177.441 72.0018 177.972 72.6135 176.69Z" fill="#2F2E41"/>
<path d="M222.494 146.866C231.365 146.866 238.556 139.721 238.556 130.908C238.556 122.095 231.365 114.95 222.494 114.95C213.624 114.95 206.432 122.095 206.432 130.908C206.432 139.721 213.624 146.866 222.494 146.866Z" fill="#2F2E41"/>
<path d="M229.872 143.398L224.993 143.42L225.033 152.106L229.913 152.083L229.872 143.398Z" fill="#2F2E41"/>
<path d="M220.113 143.443L215.234 143.465L215.274 152.151L220.154 152.128L220.113 143.443Z" fill="#2F2E41"/>
<path d="M217.47 154.362C219.41 153.237 220.638 151.74 220.214 151.017C219.789 150.295 217.873 150.62 215.933 151.745C213.993 152.869 212.765 154.367 213.19 155.09C213.614 155.812 215.531 155.486 217.47 154.362Z" fill="#2F2E41"/>
<path d="M227.026 154.318C228.966 153.193 230.194 151.696 229.769 150.973C229.345 150.25 227.428 150.576 225.489 151.701C223.549 152.825 222.321 154.323 222.745 155.046C223.17 155.768 225.086 155.442 227.026 154.318Z" fill="#2F2E41"/>
<path d="M222.069 132.324C225.1 132.324 227.558 129.882 227.558 126.87C227.558 123.858 225.1 121.416 222.069 121.416C219.037 121.416 216.579 123.858 216.579 126.87C216.579 129.882 219.037 132.324 222.069 132.324Z" fill="white"/>
<path d="M220.188 126.373C221.199 126.373 222.018 125.559 222.018 124.555C222.018 123.551 221.199 122.737 220.188 122.737C219.178 122.737 218.358 123.551 218.358 124.555C218.358 125.559 219.178 126.373 220.188 126.373Z" fill="#3F3D56"/>
<path d="M238.005 115.996C239.275 110.219 235.102 104.407 228.685 103.015C222.267 101.622 216.035 105.176 214.765 110.953C213.495 116.729 217.754 118.838 224.172 120.23C230.589 121.623 236.735 121.772 238.005 115.996Z" fill="#2F80ED"/>
<path d="M213.118 125.934C213.66 124.659 210.787 122.236 206.701 120.521C202.616 118.806 198.864 118.449 198.322 119.723C197.78 120.997 200.653 123.421 204.739 125.136C208.824 126.851 212.576 127.208 213.118 125.934Z" fill="#2F2E41"/>
<path d="M245.934 139.159C246.476 137.885 243.604 135.462 239.518 133.747C235.432 132.032 231.681 131.674 231.139 132.949C230.597 134.223 233.47 136.646 237.555 138.361C241.641 140.076 245.392 140.434 245.934 139.159Z" fill="#2F2E41"/>
<path d="M225.74 137.862C225.743 138.34 225.652 138.813 225.47 139.256C225.289 139.698 225.022 140.101 224.684 140.441C224.346 140.781 223.944 141.051 223.501 141.236C223.058 141.422 222.582 141.518 222.101 141.521C221.62 141.524 221.144 141.432 220.698 141.252C220.253 141.071 219.848 140.806 219.506 140.47C219.164 140.134 218.893 139.734 218.706 139.293C218.52 138.853 218.423 138.38 218.421 137.903L218.421 137.896C218.411 135.888 220.048 135.464 222.069 135.455C224.09 135.445 225.731 135.854 225.74 137.862Z" fill="white"/>
<path d="M209.28 121.42H119.498C117.748 121.42 116.329 120.416 116.327 119.179V99.7917C116.329 98.5546 117.748 97.5507 119.498 97.5507H209.28C211.03 97.5507 212.448 98.5546 212.45 99.7917V119.179C212.449 120.416 211.03 121.419 209.28 121.42ZM119.498 98.4463C118.448 98.4463 117.597 99.0487 117.596 99.7909V119.178C117.596 119.92 118.448 120.522 119.498 120.523H209.28C210.33 120.523 211.181 119.92 211.182 119.178V99.7917C211.182 99.0495 210.33 98.4478 209.28 98.4471L119.498 98.4463Z" fill="#3F3D56"/>
</g>
<defs>
<clipPath id="clip0">
<rect width="246" height="206" fill="white"/>
</clipPath>
</defs>
</svg>
