<svg width="565" height="551" viewBox="0 0 565 551" fill="none" xmlns="http://www.w3.org/2000/svg">
<rect width="565" height="551" fill="#DAE3EA"/>
<path fill-rule="evenodd" clip-rule="evenodd" d="M310 255V297C310 300.3 307.3 303 304 303H262C258.7 303 256 300.3 256 297V255C256 251.7 258.7 249 262 249H304C307.3 249 310 251.7 310 255ZM280 289.53L273.7 281.94C273.07 281.19 271.93 281.22 271.36 282L263.89 291.6C263.11 292.59 263.8 294.03 265.06 294.03H301.03C302.26 294.03 302.98 292.62 302.23 291.63L291.7 277.59C291.1 276.78 289.9 276.78 289.3 277.56L280 289.53Z" fill="#94A3B1"/>
</svg>
